<?xml version="1.0" encoding="utf-8"?>
<svg width="1000" zoomAndPan="magnify" viewBox="0 0 230 230" height="400" preserveAspectRatio="xMidYMid meet" version="1.0" xmlns="http://www.w3.org/2000/svg">
  <defs>
    <g/>
    <g/>
  </defs>
  <circle style="fill: rgb(255, 255, 255);" transform="matrix(0.236234, 0, 0, 0.234556, 20.706989, 23.137072)" cx="405.5" cy="387.5" r="281.5"/>
  <g transform="matrix(0.623938, 0, 0, 0.623938, -358.807953, -183.694458)">
    <path d="M 801.591 445.027 C 799.525 442.207 795.505 441.469 792.54 443.551 C 789.72 445.629 788.97 449.641 791.048 452.609 C 796.107 459.594 798.775 467.914 798.775 476.687 C 798.775 485.449 796.107 493.77 791.048 500.766 C 788.97 503.586 789.571 507.746 792.54 509.824 C 793.728 510.715 795.056 511.016 796.243 511.016 C 798.185 511.016 800.263 510.125 801.443 508.336 C 808.126 499.121 811.696 488.129 811.696 476.687 C 811.833 465.246 808.279 454.391 801.591 445.027" fill-opacity="1" fill-rule="nonzero" style="fill: rgb(67, 80, 93);"/>
    <path d="M 818.068 428.094 C 815.841 425.262 811.833 424.824 809.017 427.055 C 806.2 429.273 805.763 433.297 807.978 436.117 C 817.329 447.711 822.228 461.672 822.228 476.539 C 822.228 491.402 817.329 505.363 807.978 516.957 C 805.763 519.777 806.2 523.801 809.017 526.02 C 810.204 526.91 811.685 527.512 813.025 527.512 C 814.962 527.512 816.743 526.621 818.068 525.129 C 829.064 511.457 835.15 494.223 835.15 476.539 C 835.15 458.852 829.064 441.906 818.068 428.094" fill-opacity="1" fill-rule="nonzero" style="fill: rgb(67, 80, 93);"/>
    <path d="M 774.283 417.09 C 772.642 416.352 770.865 416.504 769.376 417.543 L 724.837 451.27 L 698.72 451.27 C 696.189 451.27 694.111 453.352 694.111 455.883 L 694.111 497.493 C 694.111 500.012 696.189 502.094 698.72 502.094 L 724.837 502.094 L 769.525 535.833 C 770.275 536.422 771.314 536.723 772.341 536.723 C 773.095 536.723 773.681 536.575 774.419 536.274 C 776.06 535.532 776.951 533.903 776.951 532.122 L 776.951 421.254 C 776.951 419.473 775.912 417.833 774.283 417.09" fill-opacity="1" fill-rule="nonzero" style="fill: rgb(67, 80, 93);"/>
  </g>
  <g style="" transform="matrix(1, 0, 0, 1, -2.270431, 0)">
    <title>Circles</title>
    <path d="M 215.629 104.133 C 216.016 107.68 216.207 111.23 216.207 114.715 C 216.207 116.582 214.66 118.133 212.789 118.133 C 212.594 118.133 212.336 118.133 212.145 118.066 C 210.594 117.746 209.434 116.324 209.434 114.777 C 209.434 111.422 209.238 108.133 208.918 104.84 C 208.723 103.035 210.078 101.355 211.883 101.164 C 213.758 100.969 215.434 102.324 215.629 104.133" fill-opacity="1" fill-rule="nonzero" style="fill: rgb(53, 171, 204);"/>
    <path d="M 211.367 131.813 C 213.176 132.199 214.336 134.004 213.949 135.813 C 213.176 139.297 212.273 142.715 211.113 146.07 C 210.66 147.488 209.367 148.395 207.949 148.395 C 207.563 148.395 207.238 148.328 206.852 148.199 C 206.531 148.07 206.145 147.941 205.883 147.684 C 204.785 146.844 204.273 145.359 204.723 143.941 C 205.754 140.777 206.66 137.617 207.371 134.391 C 207.691 132.844 209.109 131.746 210.66 131.746 C 210.918 131.746 211.113 131.746 211.367 131.813" fill-opacity="1" fill-rule="nonzero" style="fill: rgb(53, 171, 204);"/>
    <path d="M 211.113 83.418 C 211.691 85.16 210.723 87.098 208.98 87.676 C 208.594 87.809 208.27 87.871 207.887 87.871 C 206.465 87.871 205.176 86.969 204.723 85.551 C 204.145 83.871 203.562 82.258 202.918 80.645 C 203.434 82 204.723 82.773 206.078 82.773 C 206.465 82.773 206.918 82.711 207.305 82.516 C 208.852 81.934 209.691 80.32 209.367 78.773 C 210.016 80.258 210.594 81.805 211.113 83.418" fill-opacity="1" fill-rule="nonzero" style="fill: rgb(53, 171, 204);"/>
    <path d="M 209.367 78.773 C 209.691 80.32 208.852 81.934 207.305 82.516 C 206.918 82.711 206.465 82.773 206.078 82.773 C 204.723 82.773 203.434 82 202.918 80.645 C 202.207 78.902 203.047 76.965 204.785 76.258 C 206.531 75.613 208.398 76.453 209.176 78.129 L 209.176 78.191 C 209.238 78.387 209.305 78.578 209.367 78.773" fill-opacity="1" fill-rule="nonzero" style="fill: rgb(53, 171, 204);"/>
    <path d="M 209.176 78.129 C 208.398 76.453 206.531 75.613 204.785 76.258 C 203.047 76.965 202.207 78.902 202.918 80.645 C 201.238 76.453 199.238 72.387 196.98 68.449 C 196.012 66.836 196.594 64.773 198.207 63.871 C 199.82 62.902 201.887 63.48 202.789 65.094 C 205.242 69.289 207.371 73.676 209.176 78.129" fill-opacity="1" fill-rule="nonzero" style="fill: rgb(53, 171, 204);"/>
    <path d="M 201.109 160.715 C 202.723 161.684 203.238 163.75 202.27 165.363 C 201.305 166.91 200.336 168.523 199.305 170.074 C 200.336 168.523 199.949 166.395 198.402 165.363 C 196.852 164.332 194.723 164.719 193.691 166.266 C 194.66 164.844 195.625 163.363 196.527 161.879 C 197.109 160.848 198.207 160.199 199.367 160.199 C 199.949 160.199 200.531 160.395 201.109 160.715" fill-opacity="1" fill-rule="nonzero" style="fill: rgb(53, 171, 204);"/>
    <path d="M 198.402 165.363 C 199.949 166.395 200.336 168.523 199.305 170.074 C 198.656 171.039 197.562 171.555 196.527 171.555 C 195.82 171.555 195.176 171.363 194.594 170.977 C 193.043 169.879 192.656 167.813 193.691 166.266 C 194.723 164.719 196.852 164.332 198.402 165.363" fill-opacity="1" fill-rule="nonzero" style="fill: rgb(53, 171, 204);"/>
    <path d="M 197.304688 46.320312 C 197.304688 38.960938 191.304688 32.960938 183.945312 32.960938 C 176.59375 32.960938 170.589844 38.960938 170.589844 46.320312 C 170.589844 53.675781 176.59375 59.675781 183.945312 59.675781 C 191.304688 59.675781 197.304688 53.675781 197.304688 46.320312 Z M 183.945312 26.1875 C 195.046875 26.1875 204.015625 35.222656 204.015625 46.320312 C 204.015625 53.222656 200.53125 59.351562 195.175781 62.964844 C 191.945312 65.09375 188.078125 66.386719 183.945312 66.386719 C 178.398438 66.386719 173.363281 64.128906 169.753906 60.515625 C 166.074219 56.902344 163.816406 51.867188 163.816406 46.320312 C 163.816406 41.480469 165.558594 37.027344 168.460938 33.480469 C 172.140625 29.027344 177.6875 26.1875 183.945312 26.1875 " fill-opacity="1" fill-rule="nonzero" style="fill: rgb(95, 118, 132);"/>
    <path d="M 196.527344 171.554688 C 197.5625 171.554688 198.65625 171.039062 199.304688 170.074219 C 180.851562 197.363281 150.203125 213.625 117.296875 213.625 C 97.035156 213.625 77.550781 207.558594 60.902344 196.011719 C 59.421875 194.976562 59.03125 192.847656 60.0625 191.300781 C 60.257812 191.042969 60.453125 190.847656 60.648438 190.71875 C 61.808594 189.75 63.484375 189.558594 64.773438 190.460938 C 80.261719 201.238281 98.390625 206.914062 117.296875 206.914062 C 147.941406 206.914062 176.527344 191.6875 193.691406 166.265625 C 192.65625 167.8125 193.042969 169.878906 194.59375 170.976562 C 195.175781 171.363281 195.820312 171.554688 196.527344 171.554688 " fill-opacity="1" fill-rule="nonzero" style="fill: rgb(53, 171, 204);"/>
    <path d="M 183.945312 32.960938 C 191.304688 32.960938 197.304688 38.960938 197.304688 46.320312 C 197.304688 53.675781 191.304688 59.675781 183.945312 59.675781 C 176.59375 59.675781 170.589844 53.675781 170.589844 46.320312 C 170.589844 38.960938 176.59375 32.960938 183.945312 32.960938 " fill-opacity="1" fill-rule="nonzero" fill="#fe587e"/>
    <path d="M 185.367188 114.714844 C 185.367188 128.777344 181.109375 142.261719 173.109375 153.746094 C 174.140625 152.199219 173.816406 150.132812 172.269531 149.039062 C 170.785156 148.007812 168.65625 148.328125 167.558594 149.875 C 174.785156 139.550781 178.65625 127.425781 178.65625 114.714844 C 178.65625 80.902344 151.105469 53.417969 117.296875 53.417969 C 98.390625 53.417969 80.839844 61.933594 69.097656 76.839844 C 67.9375 78.257812 65.808594 78.515625 64.324219 77.355469 C 63.9375 77.03125 63.613281 76.644531 63.417969 76.191406 C 62.90625 75.03125 62.96875 73.675781 63.808594 72.644531 C 76.777344 56.125 96.328125 46.640625 117.296875 46.640625 C 133.75 46.640625 148.847656 52.449219 160.589844 62.257812 C 175.6875 74.707031 185.367188 93.613281 185.367188 114.714844 " fill-opacity="1" fill-rule="nonzero" style="fill: rgb(157, 83, 217);"/>
    <path d="M 172.27 149.039 C 173.816 150.133 174.141 152.199 173.109 153.746 C 172.461 154.715 171.43 155.168 170.332 155.168 C 169.688 155.168 168.977 154.973 168.398 154.586 C 166.914 153.488 166.527 151.426 167.559 149.875 C 168.656 148.328 170.785 148.008 172.27 149.039" fill-opacity="1" fill-rule="nonzero" style="fill: rgb(157, 83, 217);"/>
    <path d="M 173.109 153.746 C 172.012 155.297 170.848 156.844 169.688 158.266 C 168.977 159.039 168.012 159.492 167.043 159.492 C 166.332 159.492 165.559 159.23 164.914 158.719 C 164.719 158.523 164.527 158.328 164.398 158.137 C 163.496 156.91 163.496 155.168 164.461 153.941 C 165.559 152.652 166.59 151.297 167.559 149.875 C 166.527 151.426 166.914 153.488 168.398 154.586 C 168.977 154.973 169.688 155.168 170.332 155.168 C 171.43 155.168 172.461 154.715 173.109 153.746" fill-opacity="1" fill-rule="nonzero" style="fill: rgb(157, 83, 217);"/>
    <path d="M 164.65625 27.929688 C 166.332031 28.832031 166.914062 30.832031 166.011719 32.511719 C 165.882812 32.769531 165.6875 33.027344 165.429688 33.21875 C 164.398438 34.253906 162.847656 34.578125 161.429688 33.867188 C 148.007812 26.445312 132.714844 22.574219 117.296875 22.574219 C 66.453125 22.574219 25.09375 63.933594 25.09375 114.714844 C 25.09375 125.035156 26.835938 135.167969 30.191406 144.910156 C 30.773438 146.652344 29.867188 148.585938 28.128906 149.167969 C 27.738281 149.296875 27.351562 149.363281 27.03125 149.363281 C 25.609375 149.363281 24.320312 148.523438 23.804688 147.101562 C 20.191406 136.652344 18.382812 125.808594 18.382812 114.714844 C 18.382812 60.191406 62.777344 15.863281 117.296875 15.863281 C 133.8125 15.863281 150.203125 19.996094 164.65625 27.929688 " fill-opacity="1" fill-rule="nonzero" style="fill: rgb(255, 99, 203);"/>
    <path d="M 154.59 167.75 C 155.559 169.297 155.105 171.43 153.559 172.395 C 150.523 174.332 147.297 176.008 144.008 177.363 C 143.555 177.555 143.105 177.684 142.719 177.684 C 141.688 177.684 140.781 177.234 140.137 176.461 C 139.941 176.203 139.75 175.945 139.621 175.621 C 138.844 173.879 139.684 171.941 141.363 171.168 C 144.332 169.941 147.234 168.395 149.945 166.719 C 150.523 166.328 151.105 166.199 151.75 166.199 C 152.848 166.199 153.945 166.781 154.59 167.75" fill-opacity="1" fill-rule="nonzero" style="fill: rgb(157, 83, 217);"/>
    <path d="M 126.328 178.91 C 126.461 180.781 125.105 182.395 123.234 182.59 C 121.297 182.785 119.297 182.848 117.297 182.848 C 115.684 182.848 114.07 182.785 112.523 182.652 C 110.652 182.523 109.23 180.91 109.359 179.105 C 109.426 178.395 109.684 177.813 110.004 177.301 C 110.715 176.395 111.813 175.879 112.973 175.945 C 116.137 176.137 119.488 176.137 122.652 175.879 C 123.617 175.75 124.586 176.137 125.234 176.781 C 125.813 177.301 126.266 178.074 126.328 178.91" fill-opacity="1" fill-rule="nonzero" style="fill: rgb(157, 83, 217);"/>
    <path d="M 94.199 171.621 C 95.937 172.332 96.777 174.266 96.066 176.008 C 95.937 176.332 95.746 176.59 95.551 176.848 C 94.844 177.621 93.937 178.074 92.906 178.074 C 92.52 178.074 92.066 178.008 91.68 177.879 C 90.133 177.301 88.648 176.59 87.23 175.816 C 87.488 175.816 87.746 175.879 88.004 175.879 C 89.23 175.879 90.453 175.168 91.035 174.008 C 91.875 172.332 91.23 170.332 89.551 169.492 C 91.035 170.266 92.648 170.977 94.199 171.621" fill-opacity="1" fill-rule="nonzero" style="fill: rgb(157, 83, 217);"/>
    <path d="M 89.551 169.492 C 91.23 170.332 91.875 172.332 91.035 174.008 C 90.453 175.168 89.23 175.879 88.004 175.879 C 87.746 175.879 87.488 175.816 87.23 175.816 C 86.973 175.684 86.777 175.621 86.52 175.492 C 84.844 174.656 84.195 172.59 85.035 170.977 C 85.875 169.297 87.875 168.652 89.551 169.492" fill-opacity="1" fill-rule="nonzero" style="fill: rgb(157, 83, 217);"/>
    <path d="M 89.550781 169.492188 C 87.875 168.652344 85.875 169.296875 85.035156 170.976562 C 84.195312 172.589844 84.84375 174.65625 86.519531 175.492188 C 76.195312 170.265625 67.613281 162.714844 61.289062 153.554688 C 54.902344 144.390625 50.835938 133.617188 49.613281 122.132812 C 49.417969 120.324219 50.710938 118.648438 52.582031 118.453125 C 54.449219 118.261719 56.128906 119.550781 56.324219 121.421875 C 58.515625 142.070312 70.96875 160.070312 89.550781 169.492188 " fill-opacity="1" fill-rule="nonzero" style="fill: rgb(157, 83, 217);"/>
    <path d="M 65.9375 96.90625 C 65.9375 90.96875 61.03125 86.066406 55.03125 86.066406 C 49.03125 86.066406 44.191406 90.96875 44.191406 96.90625 C 44.191406 102.90625 49.03125 107.808594 55.03125 107.808594 C 61.03125 107.808594 65.9375 102.90625 65.9375 96.90625 Z M 55.03125 79.289062 C 64.773438 79.289062 72.648438 87.226562 72.648438 96.90625 C 72.648438 106.648438 64.773438 114.519531 55.03125 114.519531 C 54.386719 114.519531 53.808594 114.453125 53.160156 114.453125 C 44.386719 113.488281 37.417969 106 37.417969 96.90625 C 37.417969 87.226562 45.355469 79.289062 55.03125 79.289062 " fill-opacity="1" fill-rule="nonzero" style="fill: rgb(95, 118, 132);"/>
    <path fill="#5f7684" d="M 56.96875 172.460938 C 56.96875 163.75 49.871094 156.652344 41.160156 156.652344 C 32.449219 156.652344 25.351562 163.75 25.351562 172.460938 C 25.351562 181.167969 32.449219 188.265625 41.160156 188.265625 C 49.871094 188.265625 56.96875 181.167969 56.96875 172.460938 Z M 57.097656 156.585938 C 61.226562 160.652344 63.742188 166.265625 63.742188 172.460938 C 63.742188 179.492188 60.515625 185.75 55.484375 189.882812 C 51.613281 193.105469 46.644531 195.042969 41.160156 195.042969 C 28.707031 195.042969 18.640625 184.910156 18.640625 172.460938 C 18.640625 163.941406 23.417969 156.523438 30.386719 152.652344 C 33.609375 150.910156 37.222656 149.941406 41.160156 149.941406 C 47.417969 149.941406 53.03125 152.457031 57.097656 156.585938 " fill-opacity="1" fill-rule="nonzero"/>
    <path d="M 55.03125 86.066406 C 61.03125 86.066406 65.9375 90.96875 65.9375 96.90625 C 65.9375 102.90625 61.03125 107.808594 55.03125 107.808594 C 49.03125 107.808594 44.191406 102.90625 44.191406 96.90625 C 44.191406 90.96875 49.03125 86.066406 55.03125 86.066406 " fill-opacity="1" fill-rule="nonzero" style="fill: rgb(255, 145, 77);"/>
    <path fill="#5ce1e6" d="M 41.160156 156.652344 C 49.871094 156.652344 56.96875 163.75 56.96875 172.460938 C 56.96875 181.167969 49.871094 188.265625 41.160156 188.265625 C 32.449219 188.265625 25.351562 181.167969 25.351562 172.460938 C 25.351562 163.75 32.449219 156.652344 41.160156 156.652344 " fill-opacity="1" fill-rule="nonzero"/>
  </g>
</svg>